<?xml version="1.0" encoding="UTF-8" standalone="no"?>
<!-- Created with Inkscape (http://www.inkscape.org/) -->

<svg
   width="135.46666mm"
   height="135.46666mm"
   viewBox="0 0 135.46666 135.46667"
   version="1.1"
   id="svg5"
   inkscape:version="1.1.2 (0a00cf5339, 2022-02-04)"
   sodipodi:docname="logo.svg"
   xmlns:inkscape="http://www.inkscape.org/namespaces/inkscape"
   xmlns:sodipodi="http://sodipodi.sourceforge.net/DTD/sodipodi-0.dtd"
   xmlns:xlink="http://www.w3.org/1999/xlink"
   xmlns="http://www.w3.org/2000/svg"
   xmlns:svg="http://www.w3.org/2000/svg"
   xmlns:rdf="http://www.w3.org/1999/02/22-rdf-syntax-ns#"
   xmlns:cc="http://creativecommons.org/ns#"
   xmlns:dc="http://purl.org/dc/elements/1.1/">
  <title
     id="title401900">pyMBE logo</title>
  <sodipodi:namedview
     id="namedview7"
     pagecolor="#ffffff"
     bordercolor="#666666"
     borderopacity="1.0"
     inkscape:pageshadow="2"
     inkscape:pageopacity="0.0"
     inkscape:pagecheckerboard="0"
     inkscape:document-units="mm"
     showgrid="false"
     inkscape:zoom="1.4142136"
     inkscape:cx="105.35891"
     inkscape:cy="186.32264"
     inkscape:window-width="2560"
     inkscape:window-height="1381"
     inkscape:window-x="0"
     inkscape:window-y="33"
     inkscape:window-maximized="1"
     inkscape:current-layer="layer1"
     inkscape:snap-global="false"
     fit-margin-top="0"
     fit-margin-left="0"
     fit-margin-right="0"
     fit-margin-bottom="0"
     units="mm"
     width="512px" />
  <defs
     id="defs2">
    <linearGradient
       inkscape:collect="always"
       id="shadow">
      <stop
         style="stop-color:#2c1f1d;stop-opacity:1;"
         offset="0"
         id="stop398504" />
      <stop
         style="stop-color:#f5f3f2;stop-opacity:1"
         offset="1"
         id="stop398506" />
    </linearGradient>
    <linearGradient
       inkscape:collect="always"
       id="eye">
      <stop
         style="stop-color:#ffffff;stop-opacity:1"
         offset="0"
         id="stop296769" />
      <stop
         style="stop-color:#7b5c40;stop-opacity:1"
         offset="0.69635856"
         id="stop296771" />
      <stop
         style="stop-color:#3d2c25;stop-opacity:1"
         offset="1"
         id="stop296773" />
    </linearGradient>
    <linearGradient
       inkscape:collect="always"
       xlink:href="#shadow"
       id="linearGradient269620"
       x1="245.43619"
       y1="167.05373"
       x2="233.01646"
       y2="162.83929"
       gradientUnits="userSpaceOnUse"
       gradientTransform="translate(-182.19069,64.158323)" />
    <linearGradient
       inkscape:collect="always"
       xlink:href="#shadow"
       id="linearGradient277013"
       x1="276.32953"
       y1="171.15672"
       x2="231.08145"
       y2="159.94475"
       gradientUnits="userSpaceOnUse"
       gradientTransform="translate(-182.19069,64.158323)" />
    <radialGradient
       inkscape:collect="always"
       xlink:href="#shadow"
       id="radialGradient278012"
       gradientUnits="userSpaceOnUse"
       gradientTransform="matrix(-0.63477112,0,0,-1.1633197,221.94077,401.10714)"
       cx="251.63937"
       cy="162.82674"
       fx="251.63937"
       fy="162.82674"
       r="19.858528" />
    <radialGradient
       inkscape:collect="always"
       xlink:href="#shadow"
       id="radialGradient278172"
       cx="249.55023"
       cy="115.9616"
       fx="249.55023"
       fy="115.9616"
       r="5.5445938"
       gradientTransform="matrix(-1.5771611,0,0,-1.530425,466.31358,356.10511)"
       gradientUnits="userSpaceOnUse" />
    <radialGradient
       inkscape:collect="always"
       xlink:href="#eye"
       id="radialGradient301164"
       gradientUnits="userSpaceOnUse"
       gradientTransform="matrix(0.83476585,1.3664961,-1.0102469,0.61714016,93.031873,-43.490619)"
       cx="112.58019"
       cy="105.47494"
       fx="112.58019"
       fy="105.47494"
       r="2.5019903" />
  </defs>
  <g
     inkscape:label="Layer 1"
     inkscape:groupmode="layer"
     id="layer1"
     transform="translate(-5.3752184,-150.32948)">
    <rect
       style="font-variation-settings:normal;opacity:1;vector-effect:none;fill:#e6d7c4;fill-opacity:1;stroke:none;stroke-width:4.2551;stroke-linecap:butt;stroke-linejoin:miter;stroke-miterlimit:4;stroke-dasharray:none;stroke-dashoffset:0;stroke-opacity:1;-inkscape-stroke:none;stop-color:#000000;stop-opacity:1"
       id="rect279542"
       width="135.46666"
       height="135.46666"
       x="5.3752184"
       y="150.32948"
       inkscape:export-xdpi="96.256561"
       inkscape:export-ydpi="96.256561" />
    <text
       xml:space="preserve"
       style="font-style:normal;font-weight:normal;font-size:22.5778px;line-height:1.25;font-family:sans-serif;letter-spacing:0px;word-spacing:0px;fill:#3d2c25;fill-opacity:1;stroke:none;stroke-width:0.264583"
       x="29.997957"
       y="275.63339"
       id="text286611"
       inkscape:export-xdpi="96.256561"
       inkscape:export-ydpi="96.256561"><tspan
         sodipodi:role="line"
         id="tspan286609"
         style="font-style:normal;font-variant:normal;font-weight:bold;font-stretch:normal;font-size:22.5778px;font-family:'DejaVu Sans';-inkscape-font-specification:'DejaVu Sans Bold';fill:#3d2c25;fill-opacity:1;stroke-width:0.264583"
         x="29.997957"
         y="275.63339">pyMBE</tspan></text>
    <g
       id="g401846"
       transform="translate(-1.6700087)">
      <g
         id="g401694">
        <circle
           style="font-variation-settings:normal;opacity:1;fill:#3d2c25;fill-opacity:1;stroke:none;stroke-width:0.799999;stroke-linecap:butt;stroke-linejoin:miter;stroke-miterlimit:4;stroke-dasharray:none;stroke-dashoffset:0;stroke-opacity:1;stop-color:#000000;stop-opacity:1"
           id="path244023"
           cx="74.778557"
           cy="206.73578"
           r="47.674221"
           inkscape:export-xdpi="96.256561"
           inkscape:export-ydpi="96.256561" />
        <circle
           style="font-variation-settings:normal;opacity:1;fill:none;fill-opacity:1;stroke:#ac815a;stroke-width:0.774134;stroke-linecap:butt;stroke-linejoin:miter;stroke-miterlimit:4;stroke-dasharray:none;stroke-dashoffset:0;stroke-opacity:1;stop-color:#000000;stop-opacity:1"
           id="circle247773"
           cx="74.778557"
           cy="206.73578"
           r="46.132851"
           inkscape:export-xdpi="96.256561"
           inkscape:export-ydpi="96.256561" />
      </g>
      <g
         id="g401782"
         transform="translate(1.6665955,0.9341807)">
        <g
           id="g401667">
          <ellipse
             style="font-variation-settings:normal;opacity:1;vector-effect:none;fill:#f5f3f2;fill-opacity:1;stroke:#2c1f1d;stroke-width:0.2;stroke-linecap:butt;stroke-linejoin:miter;stroke-miterlimit:4;stroke-dasharray:none;stroke-dashoffset:0;stroke-opacity:1;-inkscape-stroke:none;stop-color:#000000;stop-opacity:1"
             id="ellipse53359"
             ry="11.99147"
             rx="29.054827"
             cy="230.93871"
             cx="73.111961"
             inkscape:export-xdpi="96.256561"
             inkscape:export-ydpi="96.256561" />
          <ellipse
             style="font-variation-settings:normal;opacity:1;fill:#f5f3f2;fill-opacity:1;stroke:#2c1f1d;stroke-width:0.8;stroke-linecap:butt;stroke-linejoin:miter;stroke-miterlimit:4;stroke-dasharray:none;stroke-dashoffset:0;stroke-opacity:1;stop-color:#000000;stop-opacity:1"
             id="ellipse53258"
             ry="11.99147"
             rx="31.642277"
             cy="229.09064"
             cx="73.111961"
             inkscape:export-xdpi="96.256561"
             inkscape:export-ydpi="96.256561" />
          <ellipse
             style="font-variation-settings:normal;opacity:1;fill:none;fill-opacity:1;stroke:url(#linearGradient277013);stroke-width:0.635643;stroke-linecap:butt;stroke-linejoin:miter;stroke-miterlimit:4;stroke-dasharray:none;stroke-dashoffset:0;stroke-opacity:1;stop-color:#000000;stop-opacity:1"
             id="ellipse238584"
             ry="9.5278654"
             rx="25.141487"
             cy="229.82579"
             cx="73.111961"
             inkscape:export-xdpi="96.256561"
             inkscape:export-ydpi="96.256561" />
        </g>
        <path
           d="m 69.248643,235.44961 c -5.07212,-0.87805 0.16276,0.43923 -11.47707,-2.61091 -1.74625,-0.4576 -3.76285,-1.03448 -4.30768,-1.17169 -3.78594,-0.95342 -5.18865,-2.64746 -4.33332,-3.69919 5.89186,-7.24468 6.91197,-3.50189 9.16456,-3.04649 0.90954,0.18387 1.07425,4.81491 8.68038,6.50262 1.43368,0.54118 2.51603,3.09618 2.27313,4.02566 z"
           style="font-variation-settings:normal;opacity:1;vector-effect:none;fill:url(#linearGradient269620);fill-opacity:1;stroke:none;stroke-width:0.264583px;stroke-linecap:butt;stroke-linejoin:miter;stroke-miterlimit:4;stroke-dasharray:none;stroke-dashoffset:0;stroke-opacity:1;-inkscape-stroke:none;stop-color:#000000;stop-opacity:1"
           id="path96351"
           sodipodi:nodetypes="csssscc"
           inkscape:export-xdpi="96.256561"
           inkscape:export-ydpi="96.256561" />
        <g
           id="g401676">
          <ellipse
             style="fill:#ffffff;fill-opacity:1;stroke:#2c1f1d;stroke-width:0.3;stroke-miterlimit:4;stroke-dasharray:none;stroke-opacity:1;stop-color:#000000"
             id="path32990"
             ry="7.1969929"
             rx="21.406919"
             cy="196.59586"
             cx="73.10714"
             inkscape:export-xdpi="96.256561"
             inkscape:export-ydpi="96.256561" />
          <ellipse
             style="fill:#6b3f26;fill-opacity:1;stroke:none;stroke-width:0.1;stroke-miterlimit:4;stroke-dasharray:none;stroke-opacity:1;stop-color:#000000"
             id="ellipse33523"
             ry="7.1969929"
             rx="21.406919"
             cy="200.07407"
             cx="73.10714"
             inkscape:export-xdpi="96.256561"
             inkscape:export-ydpi="96.256561" />
          <path
             id="path52169"
             style="font-variation-settings:normal;opacity:1;fill:#f5f3f2;fill-opacity:1;stroke:#2c1f1d;stroke-width:0.3;stroke-linecap:butt;stroke-linejoin:miter;stroke-miterlimit:4;stroke-dasharray:none;stroke-dashoffset:0;stroke-opacity:1;stop-color:#000000;stop-opacity:1"
             d="m 90.971013,211.66414 c 0,0 2.28461,-2.94309 5.20564,-3.35361 1.75377,-0.24648 2.21935,2.10727 1.2816,3.76597 -1.84666,3.26636 -4.53368,4.52461 -7.72372,6.06794 -3.30984,1.60128 -4.85535,1.93112 -6.77688,1.97102 l -0.24076,4.71434 c 5.37249,-0.64724 10.60161,-2.63432 15.02743,-5.77581 3.007377,-2.13467 5.851327,-4.83311 5.943227,-8.58422 0.0749,-3.05879 -1.83917,-7.20071 -6.279487,-7.02458 -2.94742,0.11691 -5.21057,3.39504 -5.21057,3.39504 z"
             sodipodi:nodetypes="csssccssscc"
             inkscape:export-xdpi="96.256561"
             inkscape:export-ydpi="96.256561" />
          <path
             style="font-variation-settings:normal;opacity:1;vector-effect:none;fill:none;fill-opacity:1;stroke:#2c1f1d;stroke-width:0.264583px;stroke-linecap:butt;stroke-linejoin:miter;stroke-miterlimit:4;stroke-dasharray:none;stroke-dashoffset:0;stroke-opacity:1;-inkscape-stroke:none;stop-color:#000000;stop-opacity:1"
             d="m 92.869053,207.96544 c 0.90451,-0.94099 2.37094,-2.12012 4.85631,-1.82753 3.366887,0.39637 3.918557,5.57982 1.72533,8.39872 -2.51918,3.23783 -4.27108,4.02459 -6.77977,5.51478 -2.76432,1.64204 -6.73733,3.0565 -8.38922,3.35837"
             id="path18859"
             sodipodi:nodetypes="csssc"
             inkscape:export-xdpi="96.256561"
             inkscape:export-ydpi="96.256561" />
          <path
             id="ellipse226832"
             style="font-variation-settings:normal;opacity:1;vector-effect:none;fill:#ac815a;fill-opacity:1;stroke:none;stroke-width:0.264583px;stroke-linecap:butt;stroke-linejoin:miter;stroke-miterlimit:4;stroke-dasharray:none;stroke-dashoffset:0;stroke-opacity:1;-inkscape-stroke:none;stop-color:#000000;stop-opacity:1"
             d="m 73.634123,193.82333 c 9.62887,1e-5 19.45245,3.13618 19.45166,6.3734 0,0.78083 -0.46644,1.55371 -1.3684,2.27325 1.42189,-0.86589 2.16889,-1.83866 2.17143,-2.82774 -5e-5,-3.23701 -9.82337,-6.37287 -19.45163,-6.37288 -7.01695,5.3e-4 -0.80306,0.55397 -0.80306,0.55397 z"
             sodipodi:nodetypes="cccccc"
             inkscape:export-xdpi="96.256561"
             inkscape:export-ydpi="96.256561" />
          <path
             id="ellipse91835"
             style="fill:#f5f3f2;fill-opacity:1;stroke:#2c1f1d;stroke-width:0.3;stroke-miterlimit:4;stroke-dasharray:none;stroke-opacity:1;stop-color:#000000"
             d="m 63.740673,232.19506 c -0.096,5.31495 19.00643,5.18094 18.75185,0 -0.29683,-6.04072 12.20373,-14.59275 12.01623,-35.56396 0.005,3.93954 -9.57891,7.16174 -21.40162,7.16174 -11.82271,0 -21.40692,-3.2222 -21.39216,-7.16174 -0.17803,20.97121 12.13489,29.51693 12.0257,35.56396 z"
             sodipodi:nodetypes="sscscs"
             inkscape:export-xdpi="96.256561"
             inkscape:export-ydpi="96.256561" />
          <path
             d="m 67.309553,232.76702 c 0.40109,0.55585 1.29827,0.49155 0.78018,-0.0778 -3.2788,-3.60304 -4.91493,-7.72284 -8.54591,-14.44503 -0.97091,-1.79749 -2.5556,-5.76275 -3.65459,-6.43553 -0.65568,-0.4014 -0.75988,-1.5179 -1.32099,-3.98339 -0.87483,-3.84382 -1.07357,-6.39502 -0.97537,-7.11129 0.008,-0.0572 0.49978,0.23121 1.38788,0.68505 0.52947,0.27057 1.19674,0.54456 1.20374,0.59786 0.0226,0.16522 0.08,1.74407 0.22159,3.4919 0.43084,5.31781 1.18945,6.51215 1.68923,7.01192 0.14506,0.14506 0.075,-1.03712 -0.14815,-2.21387 -0.29206,-1.54033 -0.44373,-3.01983 -0.58944,-4.65626 -0.38079,-4.27648 -0.0406,-4.50055 0.3769,-0.0254 0.0991,1.06203 0.27768,1.94242 0.51305,3.08615 0.39489,1.91888 2.41503,8.29808 3.84677,11.12267 2.78417,5.4927 6.67693,13.39101 8.60655,13.72212 3.38694,0.58119 5.53545,0.20811 7.80621,-0.48643 2.65506,-0.81208 4.87198,-8.80832 4.70178,-7.16347 -0.0457,0.44133 -2.54123,6.61195 -1.71456,6.27862 l 1.02646,-0.41387 c -3.79381,3.73761 -14.96446,3.592 -18.84011,-0.0231 0.65689,0.27654 1.39142,0.53604 2.0454,0.79057 0.22192,0.0864 -0.02,-0.28491 -0.17539,-0.53915 -2.49321,-4.079 -7.58505,-13.38772 -9.73511,-18.43691 -0.51063,-1.19916 -0.38801,-1.18391 0.18447,-0.0366 3.06261,6.1378 6.18347,12.15757 11.30941,19.26124 z m -14.1651,-32.19997 c 0,0.29628 0.002,2.03162 0.10002,3.13883 0.0997,1.12589 0.45303,2.58303 0.55891,3.26842 0.1068,0.6913 -0.0353,0.60238 -0.27353,-0.25594 -0.065,-0.23404 -0.35226,-1.32821 -0.54235,-3.02516 -0.12625,-1.12704 -0.17538,-3.07825 -0.17538,-3.32332 0,-0.0819 0.33233,0.14838 0.33233,0.19717 z"
             style="font-variation-settings:normal;opacity:1;vector-effect:none;fill:#2c1f1d;fill-opacity:1;stroke:none;stroke-width:0.264583px;stroke-linecap:butt;stroke-linejoin:miter;stroke-miterlimit:4;stroke-dasharray:none;stroke-dashoffset:0;stroke-opacity:1;-inkscape-stroke:none;stop-color:#000000;stop-opacity:1"
             id="path64472"
             sodipodi:nodetypes="sssssssssssssssssssscssssssssssss"
             inkscape:export-xdpi="96.256561"
             inkscape:export-ydpi="96.256561" />
        </g>
        <path
           id="path242531"
           style="fill:#f5f3f2;fill-opacity:1;stroke-width:0.267519"
           d="m 56.356803,178.60425 c -0.36794,-2.64069 -0.19605,-2.68299 1.82294,-4.60251 1.43277,-1.36219 1.86809,-2.6866 1.40006,-3.42858 -0.52663,-0.83489 -0.99675,-0.48875 -0.91292,0.67218 0.0741,1.02629 -0.37707,1.00651 -1.64558,2.0895 -1.53043,1.30661 -2.57798,2.66011 -2.54827,4.20379 0.0234,1.21827 1.20301,5.05306 1.36038,4.91425 1.09318,-0.96425 0.64988,-2.9408 0.52339,-3.84863 z m 2.82327,-2.38267 c 0.55256,-0.38703 0.83214,-1.44021 0.38233,-1.44021 -0.48715,0 -1.38179,0.86624 -1.38179,1.33792 0,0.62183 0.22486,0.64484 0.99946,0.10229 z m 1.69169,-2.93642 c 0.5709,-0.51666 0.62478,-0.88504 0.12945,-0.88504 -0.19493,0 -0.49003,0.29766 -0.65579,0.66146 -0.34909,0.76617 -0.16135,0.84592 0.52634,0.22358 z m 0.47323,-6.1767 c -0.13968,0 -0.2533,0.0893 -0.25249,0.19844 0.002,0.27643 0.5216,2.23075 0.72096,2.71197 0.3202,0.77291 0.39481,-0.87667 0.15782,-1.66768 -0.23699,-0.79102 -0.48661,-1.24273 -0.62629,-1.24273 z"
           sodipodi:nodetypes="sssssssssssssssssssss"
           inkscape:export-xdpi="96.256561"
           inkscape:export-ydpi="96.256561" />
        <g
           id="g401754">
          <g
             id="g401684">
            <path
               id="path27993"
               style="fill:#000000;fill-opacity:1;stroke:#2c1f1d;stroke-width:0.264583px;stroke-linecap:butt;stroke-linejoin:miter;stroke-opacity:1"
               d="m 62.887183,186.77943 c -0.44544,-2.20577 -0.21749,-5.79566 0.39972,-8.1559 0.36383,-1.39142 0.76201,-2.64501 1.86522,-3.85152 1.52976,-1.67299 4.26167,-2.57463 6.42816,-1.93181 2.20843,0.65525 4.14598,1.73854 4.74502,3.56669 1.49648,4.56694 2.00999,4.67351 -2.35081,8.04398 -1.06862,0.90775 -2.24647,2.75778 -2.33725,4.37283 -0.19436,3.45778 -3.57268,2.30684 -4.61324,1.94183 -3.48183,-1.22134 -3.64126,-2.29849 -4.13682,-3.9861 z"
               sodipodi:nodetypes="csssscssc"
               inkscape:export-xdpi="96.256561"
               inkscape:export-ydpi="96.256561" />
            <path
               id="path100850"
               style="font-variation-settings:normal;opacity:1;fill:url(#radialGradient278172);fill-opacity:1;stroke:#000000;stroke-width:0.1;stroke-linecap:butt;stroke-linejoin:miter;stroke-miterlimit:4;stroke-dasharray:none;stroke-dashoffset:0;stroke-opacity:1;stop-color:#000000;stop-opacity:1"
               d="m 64.479393,180.18179 c -0.0493,0.20809 -0.37674,0.51484 -0.57365,0.81768 -0.21944,0.3375 -0.36552,0.87248 -0.46171,0.85067 -0.25905,-0.0587 -0.33746,-0.16941 -0.14089,-1.36324 0.0842,-0.51149 0.26845,-1.45606 0.41344,-1.34665 0.20741,0.15652 0.84502,0.69479 0.76281,1.04154 z m 0.63042,-4.86883 c 0.39788,-0.4722 0.74397,-0.97003 0.84357,-0.96348 0.13654,0.009 0.17249,0.73222 -0.50826,1.63974 -0.5179,0.69043 -0.72167,1.44211 -0.76277,2.64535 -0.01,0.27837 0.21226,0.89424 0.0162,0.99724 -0.17639,0.0927 -1.00425,-0.76463 -0.92294,-1.15858 0.0843,-0.40863 0.52225,-2.19666 1.3342,-3.16027 z m -0.10943,3.82108 c -0.20273,-0.41894 -0.0633,-1.21887 0.13924,-1.92495 0.34137,-1.1898 0.52868,-1.52101 0.50594,-0.0852 -0.01,0.63171 0.28458,1.20092 0.15278,1.40435 -0.13181,0.20342 -0.75745,0.68952 -0.79796,0.6058 z m 1.87596,0.50488 c -0.36002,0.0175 -0.82878,-1.27542 -1.0074,-2.45412 -0.0928,-0.61233 -0.0383,-1.74248 0.14046,-1.76025 0.17867,-0.0178 0.0822,1.06635 0.19525,1.65308 0.11305,0.58674 0.32909,1.44707 0.50668,1.77449 0.17759,0.32742 0.40191,0.77525 0.16501,0.7868 z m -2.10016,0.74072 c -0.46222,-0.29428 0.81136,-1.61858 1.19239,-1.61856 0.16903,0 0.31261,0.5834 0.41336,0.78722 0.0525,0.10622 -0.64988,0.5565 -0.8092,0.70112 -0.2096,0.19026 -0.51663,0.30843 -0.79655,0.13022 z m 0.57831,1.85465 c -0.10902,-0.36706 -0.18491,-1.02746 -0.36751,-1.38663 -0.0628,-0.1236 0.36958,-0.30581 0.61392,-0.39334 0.14103,-0.0505 0.38999,1.26547 0.53149,1.57869 0.041,0.0907 -0.71723,0.40552 -0.7779,0.20128 z m 0.4972,-1.83244 c -0.0557,-0.16265 0.81058,-0.7234 0.87984,-0.58243 0.25854,0.52623 0.88892,1.86419 1.71685,2.53637 0.21749,0.17657 -0.97347,0.33245 -1.35792,0.3041 -0.4666,-0.0344 -0.52596,-0.34643 -0.66976,-0.59511 -0.31197,-0.53949 -0.3727,-1.09011 -0.56901,-1.66293 z m -0.71781,1.99062 c 0.0475,0.23581 -1.17642,1.12827 -1.29633,1.00155 -0.13585,-0.14357 -0.16476,-0.77728 -0.16421,-1.11665 10e-4,-0.8295 0.78663,-1.88503 0.97743,-1.6429 0.37256,0.47281 0.37688,1.23089 0.48311,1.758 z m -1.67372,-0.029 c 0.0885,0.53749 0.26047,2.42851 0.36569,2.75171 0.0268,0.0823 -0.41282,0.002 -0.56837,0.002 -0.15555,2.9e-4 -0.17335,-0.7931 -0.15055,-2.00646 0.0228,-1.21336 0.24766,-1.38816 0.35323,-0.74725 z m 7.33064,1.57285 c 0.47059,0.24167 0.33042,0.18815 0.002,0.6751 -0.21558,0.31964 -0.31923,0.46038 -0.59069,0.99549 -0.45329,0.89355 -0.42303,0.86874 -1.01625,0.61314 -0.36899,-0.15897 -0.87047,-0.32085 -0.7359,-0.47106 0.15231,-0.17001 0.94533,-1.13741 1.37583,-2.20474 0.0722,-0.17888 0.6967,0.25424 0.96501,0.39207 z m -2.20986,-1.28483 c 0.30389,-0.0544 1.17121,0.61816 0.94957,0.99297 -0.76495,1.29358 -0.67933,1.6972 -1.36318,1.04784 -0.59051,-0.56073 -0.9564,-1.0993 -1.15637,-1.43916 -0.26322,-0.44737 0.57589,-0.4236 1.56998,-0.60165 z m -1.18591,1.56758 c 0.0852,0.10841 -0.92809,0.82098 -1.02116,0.68262 -0.14242,-0.21175 -0.73838,-0.97904 -0.9479,-1.38425 -0.34869,-0.67429 -0.33766,-0.75983 0.13126,-1.01079 0.16963,-0.0908 0.31349,-0.18988 0.46065,-0.18379 0.14716,0.006 0.30664,-0.0317 0.44463,0.17838 0.41766,0.63595 0.68234,1.39964 0.93252,1.71783 z m -2.82707,0.60574 c -0.81164,0.72716 -0.66874,-0.32849 -0.74257,-0.96855 -0.0178,-0.15422 0.89347,-0.79081 1.03407,-0.79657 0.18077,-0.007 0.41975,0.5934 0.61774,1.06871 0.0662,0.15881 -0.57766,0.39934 -0.90924,0.69641 z m 1.80267,0.51823 c 0,0.15009 -0.50276,0.0632 -0.7938,0.0632 -0.30408,0 -1.25655,-0.17797 -1.06284,-0.31678 0.23428,-0.16788 0.93811,-0.69821 1.1626,-0.61275 0.2245,0.0855 0.69404,0.71624 0.69404,0.86633 z m 5.38408,1.89296 c -0.0539,0.11715 -0.78075,-0.24375 -0.75081,-0.30639 0.31871,-0.6669 1.59979,-2.49337 2.14545,-3.10699 0.067,-0.0754 0.58176,-0.0297 0.8749,-0.0297 0.29314,5e-5 0.22429,0.0519 -0.51132,0.80772 -0.7356,0.75581 -1.36767,1.78699 -1.75822,2.63536 z m -4.32194,-2.68121 c 0.34469,-0.0105 0.69328,0.37232 0.95705,0.64455 0.1299,0.13406 -0.201,0.56217 -0.33239,0.58464 -0.29625,0.0507 -0.72759,-0.0377 -1.03573,-0.23669 -0.47417,-0.3062 -0.57528,-0.34822 -0.13189,-0.67865 0.20614,-0.15362 0.3624,-0.30838 0.54296,-0.31385 z m 1.52579,-2.99748 c 0.82696,0.60008 1.92437,1.14733 2.88154,1.36244 0.0895,0.0201 -0.5057,0.92822 -0.61247,0.90071 -0.614,-0.15817 -2.20719,-0.88512 -3.33808,-2.36832 -0.42282,-0.55455 -1.00334,-1.52607 -0.83019,-1.47855 0.74529,0.20456 1.25434,1.11578 1.8992,1.58372 z"
               sodipodi:nodetypes="sssssssssssssssssssssssssssssssssssssssssssssssssssssssssssssssssssssssssssssssssssssssssssssssss"
               inkscape:export-xdpi="96.256561"
               inkscape:export-ydpi="96.256561" />
          </g>
          <g
             id="g401680">
            <path
               style="fill:#000000;fill-opacity:1;stroke:#2c1f1d;stroke-width:0.264583;stroke-opacity:1"
               d="m 83.679163,201.49026 c 0.99808,-1.27055 -0.39699,-3.75115 -1.45246,-5.1329 -2.69976,-3.53432 -5.86836,-6.05254 -9.5792,-8.27444 -3.75744,-2.2498 -8.18104,-2.85595 -12.55303,-2.62861 -5.49724,0.28586 -10.49842,3.1744 -13.72069,7.62933 -2.57123,3.55483 -3.35452,8.25515 -2.8098,12.61023 0.84074,6.72173 3.07998,12.03792 7.65168,17.05542 3.19358,3.505 8.33345,7.09364 12.4061,8.74812 -0.33622,-1.83759 -0.29948,-1.64054 -1.56785,-4.06887 -0.28951,-0.55429 -0.78224,-0.94959 -1.14097,-1.54602 -3.79245,-6.30539 -6.17038,-12.05777 -8.25175,-18.92326 -0.75445,-2.4886 -1.33671,-6.39372 0.80312,-8.39655 2.22958,-2.08682 5.03745,-3.28484 7.98746,-3.67474 4.93096,-0.65172 10.22935,-0.0549 14.79363,1.60713 2.70082,0.98346 4.77098,2.99225 6.61965,5.11861 0.20821,0.23948 0.65893,0.0741 0.81411,-0.12345 z"
               id="path27816"
               sodipodi:nodetypes="ssssssscssssssss"
               inkscape:export-xdpi="96.256561"
               inkscape:export-ydpi="96.256561" />
            <path
               id="path100852"
               style="font-variation-settings:normal;fill:url(#radialGradient278012);fill-opacity:1;stroke:#000000;stroke-width:0.1;stroke-linecap:butt;stroke-linejoin:miter;stroke-miterlimit:4;stroke-dasharray:none;stroke-dashoffset:0;stroke-opacity:1;stop-color:#000000"
               d="m 62.498303,187.06002 c -0.50163,0.24896 -1.35771,-0.60089 -2.22457,-0.92168 -0.94048,-0.34803 0.84649,-0.35894 1.31436,-0.36079 1.38488,-0.005 3.16175,0.0752 3.35227,0.18958 0.45887,0.27559 -1.59985,0.67491 -2.44206,1.09289 z m -0.65631,0.25562 c 0.5355,0.30913 -0.84001,0.68103 -1.59372,0.91015 -0.16534,0.0503 -1.56554,-0.27121 -2.09489,-0.41555 -0.36343,-0.0991 0.18083,-0.65482 0.9049,-1.29391 0.70113,-0.61882 1.60988,0.1217 2.78371,0.79931 z m -4.02236,-1.17956 c 0.7894,-0.17391 1.4217,-0.15813 0.88859,0.36431 -0.15208,0.14904 -0.99336,1.09806 -1.28873,1.1669 -0.19591,0.0457 -0.56261,-0.20459 -0.76882,-0.27808 -0.7243,-0.25813 -1.35794,-0.2961 -0.87002,-0.66517 0.28247,-0.21366 1.60427,-0.49219 2.03898,-0.58796 z m 8.88196,0.2244 c 1.25429,0.16668 4.17975,1.12563 3.32285,1.36522 -1.64647,0.46037 -3.4533,1.13279 -4.44035,1.20066 -0.70582,0.0485 -3.70835,-1.29787 -3.17679,-1.48797 1.25344,-0.44826 2.85512,-1.26916 4.29429,-1.07791 z m -14.38961,2.35813 c -0.61205,0.0583 -0.39811,-0.072 0,-0.36691 0.69163,-0.51229 2.26135,-1.28167 2.57221,-1.3223 0.34598,-0.0452 0.38583,0.11182 0.32615,0.218 -0.0548,0.0974 -0.51715,0.50413 -1.16424,0.80853 -0.64709,0.30439 -1.3597,0.627 -1.73412,0.66268 z m 4.67352,-0.12633 c -0.28493,0.33287 -0.99455,0.64082 -1.40933,0.85751 -0.41714,0.21793 -0.8105,-0.31899 -1.04481,-0.60132 -0.22396,-0.26986 -0.0544,-0.50558 0.41344,-0.94504 0.32181,-0.30232 0.49773,-0.43876 0.7328,-0.44002 0.23508,-0.001 0.50643,0.0485 0.91771,0.22711 0.52203,0.22667 0.87593,0.33428 0.39019,0.90176 z m 3.15477,0.41668 c -0.15785,0.26976 -0.91202,0.42346 -1.74508,0.66129 -0.59897,0.171 -1.20588,0.4248 -1.28957,0.4248 -0.37235,0 -0.58348,-0.71845 -0.16745,-1.0476 0.52033,-0.41165 0.4687,-0.91558 0.81586,-0.95496 0.65026,-0.0738 2.74633,0.30108 2.38624,0.91647 z m 14.03962,2.03973 c -1.92449,0.1254 -2.47651,-0.0851 -3.15208,-0.59221 -0.66557,-0.49961 -0.99921,-0.55479 -0.0169,-0.96809 0.39391,-0.16573 0.72692,-0.31606 1.04534,-0.1183 1.56212,0.97018 2.97665,1.28184 3.05014,1.45933 0.0735,0.17749 -0.0626,0.16302 -0.9265,0.21927 z m -0.67007,-1.27412 c -0.0701,-0.0392 -0.76742,-0.36279 -1.254,-0.67441 -0.79414,-0.50859 -1.77209,-1.25118 -1.29406,-1.24368 0.47804,0.007 4.3464,2.11616 4.36547,2.56836 0.009,0.21122 -1.02896,-0.20942 -1.81741,-0.65027 z m -8.82921,-0.0372 c -0.33625,0.27323 -0.7438,0.65587 -1.0538,0.68461 -0.43066,0.0399 -0.80317,-0.39096 -1.69487,-0.85514 -1.42526,-0.74193 -1.90195,-0.79081 -0.91649,-1.31903 0.14409,-0.0772 0.73449,-0.43178 1.07967,-0.42868 0.34518,0.003 0.97681,0.57804 2.19526,1.02965 1.21845,0.4516 0.64077,0.685 0.39023,0.88859 z m 6.62045,-0.65735 c -1.11302,0.54105 -1.23923,0.7055 -2.10653,0.19389 -0.43915,-0.25905 -1.02695,-0.32643 -1.14864,-0.44605 -0.22536,-0.22153 1.91214,-0.78473 2.16787,-0.75098 0.27072,0.0357 1.34575,0.8775 1.0873,1.00314 z m -4.06868,-0.15294 c 0.93747,-0.006 4.23901,1.86873 3.89804,2.20067 -0.0725,0.0706 -0.67355,0.0986 -1.45996,0.26637 -1.31619,0.28072 -1.49219,0.1979 -2.11667,-0.58653 -0.33674,-0.42299 -0.88602,-0.7491 -1.19396,-0.88626 -0.8672,-0.38626 -0.62189,-0.54142 -0.12842,-0.72501 0.2461,-0.0916 0.6687,-0.26724 1.00097,-0.26924 z m -13.52766,-0.40767 c 0.45744,-0.0145 0.66046,0.56344 0.83918,0.79769 0.58829,0.77107 0.30835,0.87459 -1.60665,2.01677 -1.51673,0.90464 -1.587,0.79918 -1.587,0.11885 0,-0.74929 0.67573,-1.96609 1.26649,-2.36555 0.22451,-0.15181 0.8135,-0.55908 1.08798,-0.56776 z m -2.81968,1.40388 c -0.0256,0.14217 -0.30321,0.3758 -0.67384,0.54467 -0.37065,0.16886 -0.70937,0.23514 -0.79306,0.23514 -0.32279,0 0.85357,-1.22341 1.24936,-1.1431 0.16146,0.0328 0.2451,0.21005 0.21754,0.36329 z m 0.14023,-0.63663 c 0.016,-0.17411 0.37049,-0.32894 0.59485,-0.32749 0.18486,0.001 0.56365,0.0166 0.25754,0.49912 -0.12353,0.19468 -0.42045,0.67922 -0.54646,0.56355 -0.23212,-0.21307 -0.3229,-0.551 -0.30593,-0.73518 z m 12.55975,2.14301 c 0,0.19348 -0.56704,0.35173 -1.00165,0.56774 -0.78512,0.3902 -1.23777,0.82658 -1.58494,0.65758 -0.2422,-0.1179 -0.24272,-0.61564 -0.52917,-1.02965 -0.71329,-1.03093 -1.16689,-2.20918 -0.16201,-2.25657 1.00489,-0.0474 3.27777,1.38812 3.27777,2.0609 z m -6.8802,-0.54726 c 0.22681,1.46105 0.45712,2.09184 0.33768,2.16044 -0.11943,0.0686 -0.88201,0.29437 -1.41158,0.4294 -0.96445,0.24591 -0.9849,0.21808 -1.33456,-0.48083 -0.3052,-0.61005 -0.42983,-1.5612 -0.27968,-1.92605 0.11807,-0.28691 0.71995,-0.55279 1.11852,-0.91096 0.48122,-0.43244 0.86529,-0.5297 1.10447,-0.50677 0.23917,0.0229 0.33763,0.41294 0.46515,1.23477 z m 2.79623,-0.30592 c 0.0661,0.33642 0.40759,0.91132 0.67953,1.29759 0.27196,0.38626 0.64063,1.19525 0.64063,1.35469 0,0.17476 -0.69021,0.006 -1.56191,0.006 -0.69681,0 -1.31366,0.11042 -1.6201,-0.0841 -0.39726,-0.25217 -0.39171,-1.10268 -0.55379,-1.89837 -0.22347,-1.09698 0.25201,-0.88196 0.74908,-1.10843 0.43273,-0.19717 1.08178,-0.32385 1.35545,-0.31368 0.27367,0.0102 0.20455,0.20366 0.31111,0.7463 z m 5.8287,-0.88403 c 0.14583,0.004 0.74935,0.35433 1.35993,0.89042 0.42626,0.37425 0.90513,0.50515 0.92443,0.92885 0.0101,0.22281 -0.81995,0.58341 -0.92605,0.6466 -0.82125,0.48915 -1.91616,-0.10069 -2.82415,-1.03133 -0.15752,-0.16146 0.17761,-0.46983 0.45939,-0.698 0.36115,-0.29245 0.8266,-0.74166 1.00645,-0.73654 z m -15.96963,3.03129 c -1.05839,0.58384 -1.1209,0.7079 -1.1209,0.23715 0,-0.53681 1.06802,-1.6572 2.07327,-2.17506 0.25366,-0.13068 0.64574,-0.4511 0.84923,-0.46238 0.20349,-0.0113 -0.0193,1.15075 -0.12285,1.36238 -0.0759,0.1551 -1.06108,0.6972 -1.67875,1.03791 z m 26.6123,0.31279 c -0.0321,0.12044 -2.385,-0.10131 -2.58235,-0.21855 -0.16126,-0.0958 -1.22903,-1.44006 -0.54415,-1.44178 0.68488,-0.002 1.25213,-0.0515 1.71929,-0.0371 0.46716,0.0144 0.89458,0.20917 1.19156,0.43302 0.29698,0.22385 0.27429,1.04436 0.21565,1.26441 z m 0.4139,0.13614 c -0.2114,-0.57882 -0.19635,-1.16385 0.34732,-1.53361 0.20673,-0.1406 0.53087,0.1228 1.74799,1.26718 0.18531,0.17423 -0.57744,0.54079 -0.90215,0.76434 -0.11994,0.0826 -1.10112,-0.24589 -1.19316,-0.49791 z m 5.83413,7.07675 c -0.97252,-1.20771 -1.42446,-1.57171 -2.33814,-2.23092 -0.13949,-0.10064 0.41895,-1.11879 0.74085,-2.45153 0.10947,-0.45322 0.96547,0.64741 1.80942,1.83794 1.26614,1.78609 1.93154,5.5066 -0.21213,2.84451 z m -28.72579,-8.81396 c 0.25222,0.17848 0.13183,0.75181 0.32766,1.24952 0.51987,1.32131 0.705,1.24202 -0.46664,1.86448 -1.11852,0.59424 -1.52786,0.97011 -1.78314,-0.22518 -0.41097,-1.92435 -0.0933,-1.73307 0.89998,-2.35967 0.30923,-0.19508 0.90926,-0.60902 1.02214,-0.52915 z m 19.13833,1.45243 c -0.877,0.13629 -2.74315,0.50842 -2.83288,0.35848 -0.35339,-0.59045 -1.12872,-1.47849 -0.68631,-1.5586 0.9936,-0.17992 1.62906,-0.33838 2.6309,-0.37192 0.40083,-0.0134 1.20486,1.52284 0.88829,1.57204 z m -8.85326,-0.94726 c 0.48881,-0.0529 1.3252,0.42423 1.52232,0.74193 0.0693,0.11178 -0.34541,0.31285 -1.17448,0.77175 -0.42447,0.23495 -2.99299,0.19527 -2.84069,-0.26155 0.13949,-0.41848 1.72348,-1.16881 2.49285,-1.25213 z m 4.52047,-0.0729 c 0.45252,0.0366 0.9018,1.03368 1.05046,1.34704 0.15017,0.31653 -0.15916,0.38116 -0.58996,0.58288 -0.80913,0.37887 -1.63354,0.59208 -2.47571,0.53118 -0.61846,-0.0447 -2.15186,0.0257 -2.13384,-0.2918 0.0217,-0.38316 1.41168,-0.97032 2.22874,-1.38891 0.57198,-0.293 1.49811,-0.81453 1.92031,-0.78039 z m -20.30915,0.67349 c -0.01,0.28941 -0.29852,0.53039 -0.99672,1.44594 -0.53923,0.70708 -1.01847,1.28571 -1.06506,1.28571 -0.20606,0 0.68387,-1.82916 1.27955,-2.48091 0.47039,-0.51467 0.78425,-0.30872 0.78223,-0.25074 z m 0.45969,1.15543 c 0.27269,-0.50921 2.13076,-1.55308 2.50225,-1.40298 0.64482,0.26052 -0.48868,1.14355 -1.61228,2.31582 -1.1236,1.17227 -0.89067,1.05641 -0.95047,0.5584 -0.0598,-0.49802 -0.0677,-1.23198 0.0605,-1.47124 z m 2.54537,-0.327 c 0.28997,-0.25983 0.17399,0.74774 0.31227,1.0882 0.48547,1.19528 0.44415,0.99581 -0.23553,1.82223 -0.44332,0.53903 -1.15892,1.22454 -1.35194,1.21883 -0.17649,-0.005 -1.26355,-1.16077 -1.09928,-1.5113 0.29513,-0.62982 2.17447,-2.43873 2.37448,-2.61796 z m 18.29449,1.11987 c -1.94066,-0.31619 0.87108,-1.00802 2.20436,-1.19008 0.65408,-0.0893 1.51573,-0.24614 1.87429,-0.0521 0.45618,0.24686 1.08493,1.63795 0.90433,1.95204 -0.1806,0.3141 -0.9382,0.0571 -1.74376,-0.12638 -0.74836,-0.17042 -2.26725,-0.42512 -3.23922,-0.58348 z m -11.35639,-0.95863 c 0.3865,0.1483 0.16187,0.42107 -0.24683,1.05065 -0.27016,0.41618 -1.00537,0.72506 -1.96608,0.93378 -1.63591,0.35541 -3.02165,0.34891 -3.52836,0.15009 -0.39404,-0.15462 0.51193,-0.46882 1.76284,-1.18636 1.11885,-0.64179 2.93413,-1.06456 3.23836,-1.11756 0.11233,-0.0196 0.60844,0.11889 0.74007,0.1694 z m -10.05897,-0.0557 c 0.33706,-0.48102 0.26126,1.42046 0.25387,2.1681 -0.005,0.47501 -0.22543,0.65519 -0.8765,1.23549 -0.29015,0.25861 -0.79718,0.80572 -1.16036,0.88473 -0.0848,0.0184 0.12709,-0.67963 0.10873,-1.44794 -0.0222,-0.93098 -0.0296,-0.86164 0.93703,-1.98868 0.25269,-0.29463 0.44642,-0.43667 0.73723,-0.8517 z m 14.07261,0.2725 c 0.97266,0.13219 1.97196,0.1329 1.78397,0.43708 -0.0805,0.13027 -0.79579,0.23336 -1.36655,0.2895 -0.75642,0.0744 -1.32133,0.2559 -1.32133,-0.37069 0,-0.58948 0.39861,-0.42456 0.90391,-0.35589 z m -3.80075,1.5348 c -0.72088,0.17963 -0.13874,-0.8001 0.24275,-1.61041 0.12799,-0.27186 2.38605,-0.26381 2.41556,-0.0185 0.11546,0.95988 0.14145,0.98194 -0.48837,1.10158 -0.62983,0.11964 -1.84252,0.44574 -2.16994,0.52733 z m -12.40254,0.27144 c 0.32568,0.32816 0.16458,1.21423 0.13951,1.55789 -0.0412,0.56514 -0.53689,0.53466 -1.05161,0.95822 -0.54643,0.44965 -0.3906,0.19281 0.20551,-1.62657 0.0957,-0.29204 0.57732,-1.01979 0.70659,-0.88954 z m 10.57153,0.56206 c -1.49574,0.75091 -1.50761,1.00818 -1.35606,0.48698 0.2447,-0.84156 2.28808,-1.51367 2.50761,-1.26508 0.21952,0.24858 -0.089,0.24464 -1.15155,0.7781 z m -3.92522,1.28181 c -0.31706,0.0339 -0.79911,0.19914 -1.09294,0.39687 -0.89419,0.60174 -1.08117,0.44011 -1.27016,0.17935 -0.16236,-0.22404 0.59905,-0.80046 1.06881,-1.28037 0.90036,-0.91981 0.62119,-0.60503 1.96965,-0.6551 1.2197,-0.0453 0.88372,0.14671 0.36255,0.71826 -0.52117,0.57155 -0.78006,0.61345 -1.03791,0.64099 z m 2.38979,-1.32904 c 0.0747,0.1545 -0.15353,0.62929 -0.37571,1.05855 -0.28997,0.56022 -1.07104,1.18586 -1.28934,1.11436 -0.12604,-0.0413 0.0882,-0.46032 0.29933,-0.88377 0.19954,-0.40017 1.18053,-1.6723 1.36572,-1.28914 z m -5.93476,0.97793 c 0.7406,0.83651 0.56868,0.75319 -0.67595,1.72415 -0.64688,0.50464 -1.15535,0.95129 -1.24875,0.95529 -0.0934,0.004 -0.2946,-0.31966 -0.44405,-0.69154 -0.39464,-0.98199 -0.31869,-0.73949 0.75905,-1.71042 1.06476,-0.95924 1.00583,-0.95954 1.6097,-0.27748 z m 1.96494,1.35171 c 0.81107,-0.56941 1.64163,-0.81257 1.92619,-0.79698 0.28455,0.0156 0.23649,0.19726 -0.15335,1.13759 -0.2933,0.70752 -0.50795,1.17604 -0.70054,1.41164 -0.12185,0.14906 -1.02736,-0.47142 -1.1783,-0.8926 -0.0824,-0.23008 -0.30969,-0.56781 0.106,-0.85965 z m -4.41264,2.34941 c -0.16528,0.38861 -0.35776,0.9877 -0.4226,0.98494 -0.18094,-0.008 -1.01374,-1.22424 -0.86487,-1.46974 0.17005,-0.28042 0.85233,-1.76018 0.96363,-1.55107 0.32749,0.61527 0.65131,1.21859 0.62345,1.34505 -0.029,0.1314 -0.15118,0.34184 -0.29961,0.69082 z m -1.96451,-2.00883 c 0.23041,-0.34049 1.23464,-0.89664 1.39467,-0.82341 0.16238,0.0743 -0.0965,0.66715 -0.23297,0.90163 -0.98326,1.68851 -1.58208,2.02723 -1.58492,1.7647 -0.006,-0.54935 0.12212,-1.39797 0.42322,-1.84292 z m 5.89891,0.42408 c 0.27727,0.60854 0.23066,0.77067 -0.41082,1.44023 -0.53315,0.55649 -0.90145,0.95668 -1.10983,0.79191 -0.52606,-0.41595 -1.0092,-1.03368 -1.32838,-1.48729 -0.089,-0.12651 0.69394,-0.69622 1.02796,-0.97433 0.42244,-0.35173 0.84704,-0.8022 1.14305,-0.82281 0.29602,-0.0206 0.42607,0.49931 0.67802,1.05229 z m -2.1897,3.53482 c -0.51465,1.05698 -0.79208,1.16492 -1.45522,0.12317 -0.37707,-0.59236 -0.48733,-0.83824 -0.27011,-1.40954 0.25554,-0.67211 0.45339,-1.21611 0.71265,-1.22149 0.25927,-0.005 0.50481,0.3269 0.92822,0.88424 0.14488,0.19072 0.51648,0.54041 0.54791,0.69028 0.0538,0.25654 -0.24032,0.47507 -0.46345,0.93334 z m 1.86041,0.19572 c -0.24772,-0.26132 -0.85468,-0.75465 -0.86537,-1.04963 -0.008,-0.22422 0.65907,-0.60478 1.09749,-1.06502 0.34424,-0.36137 0.51928,-0.74027 0.77378,-0.68638 1.02495,0.21704 0.54026,2.08182 0.54757,3.00602 0.0113,1.42466 -0.64641,0.75188 -1.55347,-0.20499 z m -5.29155,0.55344 c -0.2226,-0.83247 -0.28395,-2.7181 -0.0866,-2.83954 0.19728,-0.12143 0.52688,0.39615 0.87464,0.96824 0.34777,0.57209 0.34763,0.62109 -0.12738,1.54696 -0.47502,0.92587 -0.49687,0.93685 -0.66066,0.32434 z m 1.23262,4.57995 c -0.0847,0.88524 -0.0631,1.01777 -0.68275,0.63781 -0.32018,-0.19634 -0.33984,-0.56164 -0.32529,-0.7261 0.0548,-0.61944 0.11496,-1.62388 0.14237,-1.99536 0.0268,-0.36288 0.31615,0.13387 0.70681,0.61362 0.39065,0.47974 0.20576,0.97983 0.15886,1.47003 z m -2.00561,-6.9942 c 0.0811,-0.0276 0.26332,-0.007 0.29469,0.14772 0.11576,0.57062 -0.0717,1.79312 0.42591,2.89997 0.3579,0.79606 0.23535,1.54106 0.2006,2.14222 -0.0533,0.92148 0.0214,1.74015 -0.35567,2.12342 -0.37702,0.38326 -0.98276,-7.17125 -0.56553,-7.31333 z m 4.93191,1.19485 c 0.32094,-0.0309 0.55987,0.65361 1.17617,1.31273 0.23395,0.25027 0.65579,0.42214 0.7742,0.68719 0.12041,0.26952 -0.0653,0.6344 -0.14997,1.15631 -0.16797,1.03517 -0.60424,0.95021 -2.01661,-0.21096 -0.36019,-0.29612 -0.74086,-0.62971 -1.01067,-0.94246 -0.10536,-0.12213 0.43886,-0.80695 0.55814,-1.00009 0.27725,-0.4489 0.41914,-0.97869 0.66874,-1.00272 z m -2.7707,0.38278 c 0.24123,0.0366 0.58714,0.6999 1.09844,1.41798 0.4965,0.69728 0.45413,0.76149 0.13084,1.56953 -0.3233,0.80804 -0.57473,1.3166 -0.70236,1.3166 -0.12766,0 -0.64048,-0.4666 -1.01291,-1.02935 -0.66696,-1.00785 -0.61272,-1.22319 -0.12958,-2.28579 0.26924,-0.59215 0.37435,-1.02553 0.61557,-0.98897 z m 5.7239,2.87702 c 0.0777,0.26469 0.27712,0.95614 0.17419,1.0675 -0.19498,0.21096 -0.89735,0.0462 -1.25722,-0.14776 -0.13474,-0.0726 0.38975,-2.10574 0.63514,-2.04208 0.24539,0.0637 0.32732,0.7117 0.44789,1.12234 z m -3.77864,-0.39976 c 0.12817,0.0146 0.52711,0.39485 0.78493,0.59545 0.58193,0.45277 0.48134,0.51466 0.5871,1.63455 0.15668,1.65896 0.25986,1.83165 -1.26151,0.74295 -0.32418,-0.23199 -0.51013,-0.31112 -1.19016,-0.85737 -0.0902,-0.0724 0.32653,-0.75713 0.4593,-1.04558 0.34373,-0.74677 0.40674,-1.0943 0.62034,-1.07 z m 1.64327,2.43301 c -0.0486,-0.73662 -0.19683,-1.19578 0.15824,-1.15688 0.19946,0.0219 0.90952,0.24443 1.06108,0.58187 0.11828,0.26334 0.043,0.6859 0.078,1.29945 0.0347,0.60799 0.21625,1.34515 -0.12662,1.64746 -0.15787,0.17647 -0.47959,-0.49435 -1.01551,-0.87966 -0.18267,-0.13134 -0.12772,-1.0758 -0.15519,-1.49224 z m 2.9166,0.84303 c 0.48511,1.28374 0.72123,2.13223 0.44622,2.01183 -0.69337,-0.30357 -1.66166,-0.91461 -1.68786,-1.18688 -0.0599,-0.62231 -0.14201,-1.54255 -0.10602,-2.1467 0.009,-0.15026 0.59127,-0.17969 0.82622,-0.10766 0.23495,0.072 0.23337,0.66709 0.52144,1.42941 z m -6.143,-0.98931 c 0.21376,-0.009 0.56449,0.40745 1.05776,0.74263 0.52591,0.35736 1.43174,0.76749 1.56164,0.7988 0.5881,0.14172 1.40224,0.8962 1.56809,1.65134 0.13561,0.61744 0.1228,1.24019 -0.24542,1.52796 -0.65606,0.51271 -1.1655,-0.0825 -2.79336,-0.93274 -1.48055,-0.7733 -1.41669,-1.32309 -1.43061,-2.5715 -0.007,-0.64194 0.007,-1.20471 0.2819,-1.21649 z m -0.24672,3.49231 c -0.0529,0.069 -0.87264,0.0922 -1.19655,-0.27247 -0.34732,-0.39101 -0.71361,-1.97501 -0.48406,-2.03745 0.19384,-0.0527 1.30466,0.63261 1.38547,0.73484 0.0858,0.1085 0.37416,1.47199 0.29514,1.57508 z m 5.14668,-1.07122 c 0.10914,0.003 0.52097,0.26695 0.90311,0.49584 0.81573,0.4886 0.75609,0.52471 0.42003,1.27275 -0.13056,0.29062 -0.15287,1.27638 -0.28094,1.34476 -0.20576,0.10987 -1.05492,-0.58685 -1.19174,-0.84906 -0.34211,-0.65562 -0.27363,-2.27679 0.14954,-2.26429 z m -5.16674,1.58906 c 0.29101,0.39059 0.88727,2.32279 0.69789,2.62922 -0.14326,0.2318 -0.52963,0.32263 -0.65823,0.095 -0.49716,-0.87992 -0.91068,-2.13183 -1.01641,-2.60224 -0.10574,-0.47041 0.77699,-0.39011 0.97675,-0.12198 z m 2.97169,1.11167 c -0.0168,-0.28082 0.70668,0.0178 0.77338,0.11474 0.081,0.11754 0.26535,2.03558 0.17189,2.08336 -0.16997,0.0869 -0.70745,-0.0932 -0.81817,-0.1416 -0.11071,-0.0484 -0.10406,-1.67224 -0.1271,-2.0565 z m -0.10213,2.31907 c 0.0651,-0.0598 1.03645,0.0758 1.15752,0.40238 0.12106,0.32659 0.34901,0.78486 -0.0162,0.80233 -0.36525,0.0175 -1.64309,0.22902 -1.78797,0.0416 -0.14489,-0.18739 -0.24489,-0.44329 -0.13499,-0.55824 0.1099,-0.11495 0.49212,-0.42233 0.78164,-0.68807 z m -0.7029,0.36224 c -0.55349,0.23928 -1.99486,-3.94129 -1.907,-4.04269 0.32445,-0.3744 2.43544,0.92717 2.47702,1.35243 0.10121,1.03513 0.23658,2.34156 -0.57002,2.69026 z m 5.05791,-4.39528 c 0.24201,0 0.95941,2.60784 1.19997,3.33737 0.0432,0.13102 -1.47045,0.36377 -1.54262,0.21667 -0.22736,-0.4634 -0.42922,-0.98129 -0.37764,-1.24337 0.10525,-0.53466 0.29645,-2.31067 0.72029,-2.31067 z m -0.48383,4.94257 c 0.0398,0.81783 0.18919,1.51258 0.0532,1.55728 -0.46141,0.15185 -2.2474,-1.09509 -2.39833,-1.70174 -0.0826,-0.33194 -0.2811,-1.13183 -0.31158,-1.78668 -0.0479,-1.02964 0.005,-1.38387 0.45982,-1.42557 0.45508,-0.0417 0.91702,0.44048 1.56412,1.17749 0.64709,0.737 0.57392,0.97071 0.63277,2.17922 z m -5.85826,-1.46902 c 0.17145,-0.0865 1.76182,2.68624 2.3083,4.56469 0.3787,1.30172 -0.35576,0.87396 -1.48654,-1.27332 -0.28627,-0.54361 -1.28551,-2.12452 -1.4948,-2.79691 -0.0884,-0.28399 0.53128,-0.42292 0.67304,-0.49446 z m 7.75049,4.90852 c -0.76216,-0.13466 -0.95587,-0.37516 -1.21579,-1.13731 -0.43945,-1.28837 -0.394,-3.14785 -0.38218,-3.25221 0.0124,-0.10962 1.34796,-0.34432 1.51812,-0.10764 0.38809,0.53981 0.84212,1.97101 1.16877,2.56783 0.6003,1.09679 1.14827,1.98489 0.96713,2.16603 -0.20028,0.20028 -0.90358,-0.0331 -2.05605,-0.2367 z m -5.43192,-2.79238 c 0.56479,-0.0962 0.6645,-0.0973 0.76154,0.58499 0.0687,0.4831 0.28948,1.33812 0.48478,1.96454 0.48934,1.56964 -0.0312,1.16149 -0.63794,0.72925 -0.19564,-0.13937 -0.31105,-0.48907 -0.47607,-1.11887 -0.165,-0.62979 -0.39718,-1.14196 -0.50637,-1.46939 -0.16322,-0.48941 -0.0878,-0.61189 0.37406,-0.69052 z m 3.87389,1.67568 c 0.50445,0.62889 0.52469,1.64304 0.52517,2.42679 2.4e-4,0.40018 0.0698,0.79665 -0.0393,0.78355 -0.69516,-0.0836 -2.19172,-0.9267 -2.42215,-1.20687 -0.29879,-0.36336 -1.13435,-3.7071 -0.96377,-3.76869 0.17057,-0.0616 0.84286,0.59141 1.33449,0.8571 0.47271,0.25545 1.23276,0.49323 1.56556,0.90812 z m 3.84943,1.79141 c 0.20555,0.0168 0.81722,1.733 1.01102,2.11658 0.14239,0.28183 -1.25942,0.0762 -2.36162,-0.16997 -0.46715,-0.10433 -1.43977,-0.33205 -1.57701,-0.43358 -0.0984,-0.0728 -0.075,-0.94301 -0.075,-1.29024 0,-0.29169 -0.0519,-0.68428 0.19741,-0.66043 0.91804,0.0878 1.82006,0.35738 2.8052,0.43764 z m -5.24362,2.79498 c -0.22367,-0.0189 -0.63404,-0.44755 -1.12025,-1.0238 -0.7534,-0.8929 -1.57433,-1.68613 -1.09713,-1.75575 0.0652,-0.01 2.14752,0.89663 2.53431,1.09436 0.17519,0.0896 0.48416,1.20806 0.24747,1.41436 -0.0866,0.0754 -0.29611,0.29351 -0.5644,0.27083 z m 0.54607,0.76576 c -0.1733,0.0115 -0.54197,-0.41959 -0.39698,-0.51034 0.12358,-0.0773 0.65672,-0.60887 0.8025,-0.44646 0.0608,0.0678 0.4138,0.33317 0.35087,0.38388 -0.1804,0.14536 -0.62497,0.56424 -0.75639,0.57292 z m 2.72001,-1.44927 c 0.61244,0.11922 1.79517,0.34649 2.11719,0.34849 0.32205,0.002 1.10045,0.0945 1.13713,0.16786 0.47197,0.94436 0.29934,0.94022 -1.04231,0.7426 -1.45282,-0.214 -3.48208,-0.24542 -4.21095,-0.73186 -0.46295,-0.30896 -0.51019,-0.82879 -0.51246,-1.2187 -0.001,-0.23259 1.9216,0.5768 2.5114,0.69161 z m -0.99172,2.04117 c -0.41954,0.37704 -0.61497,0.57845 -0.73628,0.46409 -0.25886,-0.24402 -0.93638,-0.76359 -0.68634,-1.01366 0.0938,-0.0938 0.57083,-0.58255 0.82025,-0.56276 0.21521,0.0171 0.66579,1.05533 0.60237,1.11233 z m 5.59218,2.46086 c 0.0578,0.0905 -1.77191,0.024 -2.91685,-0.14959 -0.71768,-0.1088 -2.74632,-2.4914 -2.74632,-3.12767 0,-0.20172 1.62098,0.0859 2.07379,0.13025 0.46394,0.0455 1.57065,0.19184 1.96108,0.23946 0.0969,0.0118 1.34206,2.45998 1.6283,2.90755 z m 1.0261,-0.11653 c 0.0918,0.15192 -0.66825,0.14619 -0.69976,0.079 -0.20089,-0.42856 -1.68468,-2.79869 -1.49985,-2.93737 0.40495,-0.30383 0.95093,0.82988 1.343,1.43479 0.39207,0.6049 0.72926,1.21282 0.85661,1.42358 z m -5.49028,-0.95343 c 0.46548,0.46548 1.11819,1.00515 0.76679,1.00955 -0.53411,0.007 -1.72015,-1.05182 -2.21289,-1.64339 -0.14637,-0.17572 0.28192,-0.4176 0.36503,-0.4621 0.19846,-0.10625 0.67377,0.68865 1.08107,1.09594 z m 0.77194,1.28967 c 0.40933,-0.35714 0.92516,-0.2324 1.49699,0.0329 0.31499,0.14613 0.84268,0.83693 0.84144,1.04886 -10e-4,0.21194 -0.0952,0.35924 -0.32614,0.35005 -0.23093,-0.009 -2.11679,-1.34064 -2.01229,-1.43181 z m 1.89703,0.0834 c -0.0795,-0.0892 2.79437,-0.13493 3.04096,0.0448 0.2466,0.17976 0.90585,0.81762 0.97089,1.27217 0.0651,0.45454 -1.33575,0.82157 -2.16044,0.25496 -0.82469,-0.56661 -1.67873,-1.3782 -1.85141,-1.57193 z m 0.63641,1.42454 c -0.19036,-0.56829 1.19161,0.47159 1.96753,0.60945 0.6206,0.11026 1.7713,-0.27094 1.82843,-0.13695 0.11779,0.27625 0.39647,1.11955 0.54847,1.46749 0.38394,0.8788 -1.00453,0.42687 -2.50731,-0.52157 -0.56181,-0.35457 -1.66674,-0.90977 -1.83712,-1.41842 z m -9.46644,-37.32102 c 0.0875,0.0412 -0.0272,0.52732 -0.83516,1.19732 -0.58622,0.48612 -0.48224,-0.19674 0.17968,-0.82662 0.39521,-0.37608 0.60299,-0.39539 0.65548,-0.3707 z m 27.46541,0.29585 c 0.20487,0.29384 -0.3825,0.57743 -0.56779,0.48598 -0.3428,-0.1692 -0.60473,-0.21996 -0.68663,-0.41689 -0.0793,-0.19066 0.0944,-0.61588 0.4173,-0.61416 0.22915,0.001 0.72186,0.37975 0.83712,0.54507 z m -1.94661,3.76219 c -0.31817,-0.71781 -0.81698,-1.4918 -0.53835,-1.65271 0.27862,-0.16092 2.47652,0.27567 3.1472,0.63867 0.28433,0.15389 0.54076,1.18212 0.27622,1.18216 -1.42566,2e-4 -2.78739,0.0522 -2.88507,-0.16812 z m 4.69053,2.67785 c -1.20036,-0.89464 -4.90291,-1.90774 -4.30515,-2.15417 0.44924,-0.1852 3.66559,-0.0727 5.09886,-0.18042 0.3851,-0.029 -0.50695,2.54831 -0.79371,2.33459 z m 0.86457,-2.84513 c 0.26558,0.3657 -1.50031,0.31558 -2.01038,0.27934 -0.30875,-0.0219 -0.31655,-0.47616 -0.41162,-0.9393 -0.0514,-0.25037 0.7332,-0.59592 1.02791,-0.77324 0.15245,-0.0917 0.91336,0.77124 1.39409,1.4332 z"
               sodipodi:nodetypes="ssssssssssssssssssssssssssssssssssssssssssssssssssssssssssssssssssssssssssssssssssssssssssssssssssssssssssssssssssssssssssssssssssssssssssssssssssssssssssssssssssssssssssssssssssssssssssssssssssssssssssssssssssssssssssssssssssssssssssssssssssssssssssssssssssssssssssssssssssssssssssssssssssssssssssssssssssssssssssssssssssssssssssssssssssssssssssssssssssssssssssssssssssssssssssssssssssssssssssssssssssssssssssssssssssssssssssssssssssssssssssssssssssssssssssssssssssssssssssssssssssssssssss"
               inkscape:export-xdpi="96.256561"
               inkscape:export-ydpi="96.256561" />
          </g>
          <g
             id="g401690">
            <path
               style="fill:#000002;fill-opacity:1;stroke:#2c1f1d;stroke-width:0.264583px;stroke-linecap:butt;stroke-linejoin:miter;stroke-opacity:1"
               d="m 76.294533,168.03011 c 1.17417,0.0403 0.2737,1.06525 1.49829,0.42093 1.23778,-0.65126 3.09637,-0.81746 4.67051,-0.81992 2.14832,0.0101 4.0288,1.35183 5.68786,2.61994 1.29679,0.99121 -0.96456,1.02255 0.72617,1.1719 1.59671,0.14105 4.16453,1.15451 4.50704,1.97604 0.78191,1.87544 2.65566,0.86999 3.60692,2.1713 1.05319,1.44077 1.26621,2.78024 0.62822,4.37603 -0.4283,1.0713 -1.28529,1.82151 -2.17481,2.1394 1.14987,0.47691 0.18256,2.2387 -1.43518,2.48793 -3.42829,0.52817 -10.94589,0.33832 -13.63057,0.22662 -1.54449,-0.0643 -2.93479,-0.48957 -5.19236,-1.34504 -1.63872,-0.62097 -3.76088,-0.7796 -5.41094,-1.78522 -1.79225,-1.09227 -3.31024,-2.80546 -3.37326,-5.08575 -0.12895,-4.66553 5.82796,-8.6935 9.89211,-8.55416 z"
               id="path6361"
               sodipodi:nodetypes="sssssssscssssss"
               inkscape:export-xdpi="96.256561"
               inkscape:export-ydpi="96.256561" />
            <circle
               style="font-variation-settings:normal;opacity:1;vector-effect:none;fill:#2f231f;fill-opacity:1;stroke:none;stroke-width:0.799999;stroke-linecap:butt;stroke-linejoin:miter;stroke-miterlimit:4;stroke-dasharray:none;stroke-dashoffset:0;stroke-opacity:1;-inkscape-stroke:none;stop-color:#000000;stop-opacity:1"
               id="circle292259"
               cx="80.722343"
               cy="175.49666"
               r="2.7635009"
               inkscape:export-xdpi="96.256561"
               inkscape:export-ydpi="96.256561" />
            <path
               id="path297749"
               style="font-variation-settings:normal;opacity:1;vector-effect:none;fill:url(#radialGradient301164);fill-opacity:1;stroke:none;stroke-width:0.0822014;stroke-linecap:butt;stroke-linejoin:miter;stroke-miterlimit:4;stroke-dasharray:none;stroke-dashoffset:0;stroke-opacity:1;-inkscape-stroke:none;stop-color:#000000;stop-opacity:1"
               d="m 82.702013,174.74086 c 0.27179,0.56689 0.18688,1.20849 -0.0778,1.72765 -0.23242,0.45575 -0.62823,0.83008 -1.14406,1.02628 -1.10363,0.41978 -2.33857,-0.13478 -2.75808,-1.2385 -0.41942,-1.10355 0.13515,-2.33816 1.23869,-2.7576 0.25271,-0.078 0.14711,-0.40213 -0.12139,-0.31928 -1.27993,0.48643 -1.92313,1.9184 -1.43657,3.19828 0.4867,1.27982 1.91879,1.92272 3.19857,1.43589 0.60692,-0.2308 1.07061,-0.67422 1.33851,-1.21318 0.29694,-0.59739 0.38989,-1.33065 0.0815,-1.98094 -0.30358,-0.64019 -0.80528,-0.91688 -1.35961,-0.99702 -0.51496,-0.0744 -1.15532,0.14497 -1.4476,0.56731 -0.28436,0.41089 -0.35367,1.08625 -0.0214,1.45946 0.34193,0.38408 0.79852,-0.0909 0.55837,-0.33103 -0.34698,-0.34698 -0.31233,-0.67095 -0.17942,-0.9282 0.18139,-0.35108 0.67521,-0.51263 1.06742,-0.46435 0.44412,0.0547 0.81144,0.29078 1.06287,0.81523 z"
               sodipodi:nodetypes="ssssccccsssssssss" />
            <path
               id="path305809"
               style="font-variation-settings:normal;opacity:1;vector-effect:none;fill:#f5f3f2;fill-opacity:1;stroke:#000000;stroke-width:0.1;stroke-linecap:butt;stroke-linejoin:miter;stroke-miterlimit:4;stroke-dasharray:none;stroke-dashoffset:0;stroke-opacity:1;-inkscape-stroke:none;stop-color:#000000;stop-opacity:1"
               d="m 93.515933,178.09467 c 0,-0.25015 -0.39018,-0.54967 -0.50152,-0.47449 -0.10759,0.0727 -0.0594,0.50294 0.15624,0.65461 0.13191,0.0928 0.34528,0.0144 0.34528,-0.18012 z m -8.70707,3.90607 c 1.7319,-0.0105 4.07282,0.25665 5.36026,0.21939 5.50501,-0.15932 6.02205,-0.53375 6.82227,-1.61235 0.81245,-1.09509 0.87144,-2.78936 0.14556,-4.18004 -0.52079,-0.99775 -0.57074,-1.14501 -1.74135,-1.43422 -0.35149,-0.0868 -0.97619,-0.19093 -1.34671,-0.40283 -0.4118,-0.23549 -0.7502,-0.77461 -0.98654,-1.01339 -1.0478,-1.05858 -2.9999,-1.75931 -6.19581,-1.90106 -1.55571,-0.069 -2.61955,-0.34926 -3.82885,-0.89354 -0.45471,-0.20466 -0.87709,-0.52067 -1.34249,-0.75279 -0.89842,-0.4481 -1.73834,-0.46882 -1.702,-0.53176 0.0344,-0.0596 1.01382,0.0476 1.79912,0.44054 0.4592,0.22979 0.9452,0.45616 1.38231,0.6413 1.65372,0.70042 3.2841,0.88017 4.37614,0.68913 0.91771,-0.16054 0.52618,-0.78047 -0.15563,-1.2215 -2.25047,-1.45573 -3.23315,-2.10614 -5.4668,-2.07985 -1.74174,0.0205 -3.03572,0.29211 -3.73931,0.59965 -0.53932,0.23575 -0.95997,0.41564 -1.31818,0.45924 -0.27686,0.0337 -2.44264,0.59884 -3.72076,0.96447 -1.27813,0.36564 -1.93689,0.61911 -2.79845,0.85893 -0.49098,0.13667 -1.47551,0.8117 -1.47551,1.17903 0,0.1077 0.72248,-0.13258 1.60616,-0.40761 1.14329,-0.35583 2.34519,-0.49339 4.16719,-0.47695 1.40827,0.0127 2.63216,-0.0675 3.35617,-0.23187 2.44612,-0.55531 3.87749,-0.0444 6.46611,1.2572 2.51091,1.2625 4.48762,1.8639 6.42572,1.8639 1.05278,0 1.36231,0.44293 1.30535,0.64304 -0.11637,0.40874 -0.93919,0.86448 -2.81891,0.69932 -1.96961,-0.17306 -3.33343,-0.59629 -5.27944,-1.57484 -0.75649,-0.3804 -1.60824,-0.81699 -1.7082,-0.82453 0.81219,0.54164 1.34897,1.46809 1.34897,2.51991 0,1.67081 -1.35445,3.02527 -3.02526,3.02527 -1.67081,0 -3.02527,-1.35446 -3.02527,-3.02527 0,-1.3227 0.84886,-2.44714 2.03017,-2.86005 -0.32389,-0.0725 -1.05399,0.0801 -1.35422,0.20824 -0.44557,0.19019 0.0435,-0.26328 0.50504,-0.38761 2.08904,-0.56276 2.63252,-0.37281 4.75015,0.74246 2.32914,1.22667 4.9187,2.00243 6.52647,1.87803 2.17601,-0.16837 1.92938,-0.77898 0.10397,-0.78551 -1.43824,-0.005 -2.97179,-0.37768 -6.11387,-1.84716 -2.57049,-1.20216 -3.38062,-1.50845 -6.71644,-1.0323 -1.4336,0.20463 -1.69913,0.1049 -2.86187,0.17211 -3.7697,0.21791 -4.91555,0.55405 -5.76558,1.32334 -0.0806,0.073 -0.32852,0.52627 -0.38618,0.99878 -0.0832,0.6821 -0.0169,1.43311 -0.10013,1.43311 -0.1028,0 -0.21237,-0.73387 -0.11669,-1.41839 0.0697,-0.49871 0.27916,-0.98587 0.32132,-1.0981 0.17698,-0.47115 0.1523,-0.48101 -0.29418,-0.11746 -0.83015,0.67598 -1.21563,1.94916 -0.90158,2.89142 0.0916,0.27484 0.20285,0.79769 0.28583,0.81992 0.0749,0.0201 0.45186,-0.48229 0.89973,-0.78996 1.32921,-0.9131 4.37501,-1.89603 5.94358,-1.69068 1.02771,0.13455 1.37335,0.0192 2.34649,-0.4286 1.49324,-0.68717 1.53721,-0.78725 0.87117,0.19009 -0.51209,0.75143 -0.78571,2.63345 0.36835,3.92779 1.47865,1.65839 3.08641,1.63798 5.50614,0.50398 0.94489,-0.44282 1.85607,-0.88672 2.09351,-0.92604 0.51311,-0.085 0.43169,-0.23821 0.0407,-0.79375 -0.29747,-0.42267 -0.59853,-1.42114 -0.59853,-1.54884 0,-0.28584 0.41528,0.73075 0.80479,1.26042 0.23878,0.32471 0.9442,0.78907 1.5687,1.10442 0.62451,0.31535 1.69145,0.97826 2.37099,1.47313 1.41366,1.02948 3.96817,2.00316 4.84698,1.84205 0.32743,-0.06 0.66437,0.0131 0.66437,0.13884 0,0.39571 -1.79623,0.24721 -3.10602,-0.25678 -0.69278,-0.26657 -2.02221,-0.98094 -2.95428,-1.5875 -2.12481,-1.38275 -3.23697,-1.46507 -5.62376,-0.30928 -2.65632,1.28631 -4.21228,1.24904 -6.77284,-1.23466 -0.45905,-0.44527 -0.78321,-0.95912 -1.41751,-1.19838 -0.43385,-0.16365 -1.51659,-0.0905 -2.32101,-0.0357 -2.06342,0.14061 -2.83928,0.54996 -3.86214,1.15762 -0.77843,0.46245 -1.01608,0.65781 -1.00202,1.0454 0.003,0.07 0.16017,0.36029 0.42922,0.60323 0.46002,0.41536 1.25694,0.69856 1.36871,0.86509 0.11889,0.17713 -0.9568,-0.13664 -1.55253,-0.69364 -0.69938,-0.65392 -1.24614,-2.30922 -1.41794,-2.83466 -0.066,-0.20186 -0.16518,-0.6318 -0.35347,-0.72339 -0.34073,-0.16575 -0.2802,1.10955 0.29822,2.73828 0.62963,1.77294 1.46512,1.70186 4.2428,2.30746 1.61215,0.35149 3.60793,0.76101 4.76468,1.05961 0.93996,0.24263 2.51053,0.65353 2.97846,0.71862 1.12847,0.15697 3.78736,-0.2889 5.77639,-0.30092 z m -12.98551,-12.46393 c -1.33172,0.62317 -1.69637,1.14397 -1.35338,1.06252 1.00216,-0.23798 1.59369,-0.50761 2.47003,-0.75224 1.29056,-0.36026 3.51085,-0.92374 3.78492,-1.03686 0.16735,-0.0691 -0.0221,-0.19618 -0.35499,-0.47114 -0.33289,-0.27497 -2.57261,0.27402 -4.54658,1.19772 z m 2.28174,6.07982 c 1.98706,0 2.33307,-0.73229 0.83214,-1.1667 -0.92172,-0.26676 -1.95894,-0.0699 -2.8133,0.12162 -2.60736,0.58437 -4.73311,1.82862 -4.3832,2.63293 0.35539,0.8169 0.19237,0.61126 1.22587,-0.16856 1.39498,-1.05257 3.06981,-1.41929 5.13849,-1.41929 z m 10.98812,7.88169 c 3.29021,-0.0807 5.43339,-0.25067 5.50757,-0.12028 0.0715,0.12573 -3.29437,0.34809 -5.52698,0.42796 -2.42782,0.0869 -5.08896,0.0689 -5.7827,-0.0632 -0.56434,-0.10747 -2.40527,-0.61606 -4.3294,-1.17678 -2.37157,-0.6911 -4.86952,-1.46141 -5.25939,-1.65741 -0.0267,-0.0134 -0.057,-0.0178 -0.0854,0.0233 -0.0272,0.0395 -0.0293,0.0672 -0.0289,0.12386 0.002,0.35519 4.26291,1.8742 8.62126,3.03465 1.68776,0.44939 2.72072,0.50188 8.83768,0.44927 6.58294,-0.0566 7.12002,-0.11185 7.67995,-0.53024 0.55992,-0.41839 0.77593,-0.93343 0.77593,-1.20877 0,-0.55644 -0.6541,-0.53621 -5.32825,-0.30668 -1.27669,0.0627 -3.55872,-0.2064 -5.34901,-0.21149 -2.03342,-0.006 -4.78509,0.48643 -5.81827,0.31075 -0.84674,-0.14398 -2.0267,-0.48822 -2.96882,-0.73474 -1.14413,-0.29938 -2.69182,-0.64858 -4.23647,-0.94408 -1.17855,-0.22546 -1.79798,-0.34276 -2.0398,-0.15019 -0.0209,0.0166 -0.025,0.0392 0.0209,0.0501 0.29119,0.0691 3.19451,0.9224 5.37618,1.49181 1.43818,0.37536 2.74932,0.89404 4.01843,1.08407 1.26911,0.19003 2.62856,0.18864 5.91549,0.10809 z m 7.43497,-6.40458 c 0.12727,-0.15336 0.84085,0.0248 1.19156,0.5716 0.45262,0.70567 -0.58204,1.23706 -1.01615,0.58009 -0.35205,-0.53277 -0.31799,-0.97989 -0.17541,-1.15169 z m 2.66167,-1.2385 c -0.44043,-0.34645 -0.78502,-0.51568 -0.53763,-0.51568 0.63533,0 1.43757,0.87272 1.62901,2.06992 0.0983,0.61466 0.11918,1.11757 0.0464,1.11757 -0.0728,0 -0.20707,-0.46763 -0.30682,-1.09151 -0.0998,-0.62388 -0.37736,-1.2235 -0.83096,-1.5803 z m -2.68163,2.62253 c 0.13765,0.16822 -0.17485,-0.0383 -0.35776,-0.41039 -0.18292,-0.37209 -0.0956,-0.94546 -0.081,-0.66276 0.0146,0.28269 0.30109,0.90494 0.43874,1.07315 z m -1.1479,-5.38305 c 0.63787,0.48246 -0.23964,0.11402 -0.90087,-0.0974 -0.76593,-0.24494 -1.41426,-0.48453 -1.18741,-0.49635 0.22685,-0.0118 1.80581,0.38009 2.08828,0.59375 z m -1.31835,3.00143 c -0.0516,-0.19244 0.36546,0.51023 0.81628,0.83819 0.45082,0.32796 0.31649,0.37128 -0.0663,0.079 -0.38279,-0.29226 -0.69118,-0.69777 -0.74998,-0.91721 z"
               sodipodi:nodetypes="ssssssssssssssssssssssssssssssssssssssssssssssssssssssssssssssssssssssssssssssssssssssssssssssssssssssssssssssssssssssssssssssssssssssssssssss" />
          </g>
        </g>
      </g>
    </g>
  </g>
  <metadata
     id="metadata401898">
    <rdf:RDF>
      <cc:Work
         rdf:about="">
        <dc:title>pyMBE logo</dc:title>
        <dc:date>2024-01-25</dc:date>
        <dc:creator>
          <cc:Agent>
            <dc:title>Pablo M. Blanco, Jean-Nol Grad</dc:title>
          </cc:Agent>
        </dc:creator>
      </cc:Work>
    </rdf:RDF>
  </metadata>
</svg>
